<svg width="24" height="24" viewBox="0 0 24 24" fill="none" xmlns="http://www.w3.org/2000/svg">
<path d="M11.8455 9.19318L14.7273 12.0659V11.9205C14.7273 11.1971 14.4399 10.5034 13.9285 9.99198C13.417 9.48052 12.7233 9.19318 12 9.19318H11.8455ZM7.93636 9.92045L9.34545 11.3295C9.3 11.5205 9.27273 11.7114 9.27273 11.9205C9.27273 12.6438 9.56006 13.3375 10.0715 13.8489C10.583 14.3604 11.2767 14.6477 12 14.6477C12.2 14.6477 12.4 14.6205 12.5909 14.575L14 15.9841C13.3909 16.2841 12.7182 16.4659 12 16.4659C10.7945 16.4659 9.63832 15.987 8.78588 15.1346C7.93344 14.2821 7.45455 13.126 7.45455 11.9205C7.45455 11.2023 7.63636 10.5295 7.93636 9.92045ZM2.90909 4.89318L4.98182 6.96591L5.39091 7.375C3.89091 8.55682 2.70909 10.1023 2 11.9205C3.57273 15.9114 7.45455 18.7386 12 18.7386C13.4091 18.7386 14.7545 18.4659 15.9818 17.975L16.3727 18.3568L19.0273 21.0114L20.1818 19.8568L4.06364 3.73864M12 7.375C13.2055 7.375 14.3617 7.85389 15.2141 8.70633C16.0666 9.55877 16.5455 10.7149 16.5455 11.9205C16.5455 12.5023 16.4273 13.0659 16.2182 13.575L18.8818 16.2386C20.2455 15.1023 21.3364 13.6114 22 11.9205C20.4273 7.92955 16.5455 5.10227 12 5.10227C10.7273 5.10227 9.50909 5.32955 8.36364 5.73864L10.3364 7.69318C10.8545 7.49318 11.4091 7.375 12 7.375Z" fill="#BFBFBF"/>
</svg>
