<svg width="24" height="24" viewBox="0 0 24 24" fill="none" xmlns="http://www.w3.org/2000/svg">
<path d="M22.6055 12.3696C22.5744 12.2972 21.8215 10.5748 20.1477 8.84873C17.9175 6.54881 15.1006 5.33331 12.0002 5.33331C8.89972 5.33331 6.08282 6.54881 3.8526 8.84873C2.17882 10.5748 1.42238 12.3 1.39482 12.3696C1.35439 12.4634 1.3335 12.5649 1.3335 12.6676C1.3335 12.7702 1.35439 12.8717 1.39482 12.9655C1.42593 13.0379 2.17882 14.7594 3.8526 16.4855C6.08282 18.7845 8.89972 20 12.0002 20C15.1006 20 17.9175 18.7845 20.1477 16.4855C21.8215 14.7594 22.5744 13.0379 22.6055 12.9655C22.6459 12.8717 22.6668 12.7702 22.6668 12.6676C22.6668 12.5649 22.6459 12.4634 22.6055 12.3696ZM12.0002 18.5333C9.26416 18.5333 6.87394 17.5076 4.89527 15.4854C4.0834 14.6528 3.39268 13.7034 2.8446 12.6666C3.39253 11.6298 4.08326 10.6804 4.89527 9.8479C6.87394 7.82573 9.26416 6.79998 12.0002 6.79998C14.7362 6.79998 17.1264 7.82573 19.1051 9.8479C19.9185 10.6802 20.6107 11.6296 21.1602 12.6666C20.5193 13.9005 17.7273 18.5333 12.0002 18.5333ZM12.0002 8.26665C11.1563 8.26665 10.3314 8.5247 9.62973 9.00818C8.92808 9.49166 8.38121 10.1788 8.05827 10.9828C7.73534 11.7868 7.65085 12.6715 7.81548 13.525C7.98011 14.3786 8.38647 15.1626 8.98317 15.7779C9.57988 16.3933 10.3401 16.8123 11.1678 16.9821C11.9954 17.1519 12.8533 17.0647 13.6329 16.7317C14.4126 16.3987 15.0789 15.8347 15.5478 15.1112C16.0166 14.3876 16.2668 13.5369 16.2668 12.6666C16.2657 11.5001 15.8158 10.3816 15.0159 9.55672C14.216 8.73182 13.1314 8.26786 12.0002 8.26665ZM12.0002 15.6C11.4376 15.6 10.8876 15.4279 10.4199 15.1056C9.95211 14.7833 9.58753 14.3252 9.37224 13.7892C9.15695 13.2532 9.10062 12.6634 9.21037 12.0944C9.32012 11.5254 9.59103 11.0027 9.98883 10.5925C10.3866 10.1822 10.8935 9.90286 11.4452 9.78968C11.997 9.67649 12.5689 9.73458 13.0887 9.9566C13.6084 10.1786 14.0527 10.5546 14.3652 11.037C14.6778 11.5194 14.8446 12.0865 14.8446 12.6666C14.8446 13.4446 14.5449 14.1907 14.0115 14.7408C13.4781 15.2909 12.7546 15.6 12.0002 15.6Z" fill="#A5A5B5"/>
</svg>
