<svg width="24" height="24" viewBox="0 0 24 24" fill="none" xmlns="http://www.w3.org/2000/svg">
<g id="icon/outlined/directional/left">
<path id="Vector" d="M16 5.80103V4.16922C16 4.02778 15.8706 3.94968 15.7832 4.03623L8.20675 11.4691C8.14237 11.532 8.09029 11.6125 8.05446 11.7045C8.01863 11.7965 8 11.8976 8 12C8 12.1024 8.01863 12.2035 8.05446 12.2955C8.09029 12.3875 8.14237 12.468 8.20675 12.5309L15.7832 19.9638C15.8723 20.0503 16 19.9722 16 19.8308V18.199C16 18.0955 15.9613 17.9963 15.8975 17.933L9.84708 12.0011L15.8975 6.06702C15.9613 6.00369 16 5.90447 16 5.80103Z" fill="#B65BFF"/>
</g>
</svg>
