<svg width="24" height="24" viewBox="0 0 24 24" fill="none" xmlns="http://www.w3.org/2000/svg">
<g id="Component 72">
<path id="Vector" d="M7.38471 12.0008C7.38471 11.7968 7.46576 11.6011 7.61002 11.4569C7.75428 11.3126 7.94994 11.2316 8.15396 11.2316H15.0772V6.23144C15.0772 4.69294 13.4526 3.53906 12.0002 3.53906H4.69236C3.97853 3.53983 3.29417 3.82373 2.78942 4.32848C2.28467 4.83324 2.00076 5.51761 2 6.23144V17.7702C2.00076 18.484 2.28467 19.1684 2.78942 19.6731C3.29417 20.1779 3.97853 20.4618 4.69236 20.4626H12.3848C13.0986 20.4618 13.783 20.1779 14.2877 19.6731C14.7925 19.1684 15.0764 18.484 15.0772 17.7702V12.7701H8.15396C7.94994 12.7701 7.75428 12.689 7.61002 12.5448C7.46576 12.4005 7.38471 12.2048 7.38471 12.0008ZM21.7749 11.457L17.9286 7.6108C17.7832 7.47263 17.5896 7.39673 17.389 7.3993C17.1884 7.40187 16.9967 7.4827 16.8549 7.62455C16.713 7.7664 16.6322 7.95805 16.6296 8.15864C16.6271 8.35923 16.703 8.55289 16.8411 8.69833L19.3739 11.2316H15.0772V12.7701H19.3739L16.8411 15.3033C16.7667 15.374 16.7072 15.4589 16.6661 15.553C16.625 15.6471 16.6031 15.7485 16.6018 15.8511C16.6005 15.9538 16.6197 16.0557 16.6584 16.1508C16.6971 16.2459 16.7544 16.3323 16.827 16.4049C16.8996 16.4775 16.986 16.5349 17.0811 16.5736C17.1763 16.6122 17.2781 16.6315 17.3808 16.6302C17.4835 16.6289 17.5848 16.607 17.6789 16.5659C17.773 16.5248 17.8579 16.4653 17.9286 16.3908L21.7749 12.5446C21.919 12.4003 22 12.2047 22 12.0008C22 11.7969 21.919 11.6013 21.7749 11.457Z" fill="white"/>
</g>
</svg>
